<svg xmlns="http://www.w3.org/2000/svg" viewBox="0 0 512 512">
  <defs>
    <linearGradient id="body" x1="0" x2="0" y1="0" y2="1">
      <stop offset="0%" stop-color="#efe7d8"/>
      <stop offset="100%" stop-color="#ccbba0"/>
    </linearGradient>
    <linearGradient id="screen" x1="0" x2="0" y1="0" y2="1">
      <stop offset="0%" stop-color="#1f2b15"/>
      <stop offset="100%" stop-color="#10170d"/>
    </linearGradient>
  </defs>
  <rect x="48" y="36" width="416" height="440" rx="48" fill="url(#body)"/>
  <rect x="92" y="84" width="328" height="110" rx="22" fill="url(#screen)"/>
  <text x="402" y="156" font-family="Courier New, monospace" font-size="72" text-anchor="end" fill="#aef08e">12.3</text>
  <g fill="#f7efe1">
    <rect x="92" y="230" width="68" height="68" rx="14"/>
    <rect x="178" y="230" width="68" height="68" rx="14"/>
    <rect x="264" y="230" width="68" height="68" rx="14"/>
    <rect x="350" y="230" width="68" height="68" rx="14" fill="#d87232"/>
    <rect x="92" y="316" width="68" height="68" rx="14"/>
    <rect x="178" y="316" width="68" height="68" rx="14"/>
    <rect x="264" y="316" width="68" height="68" rx="14"/>
    <rect x="350" y="316" width="68" height="68" rx="14" fill="#d87232"/>
    <rect x="92" y="402" width="154" height="68" rx="14"/>
    <rect x="264" y="402" width="68" height="68" rx="14"/>
    <rect x="350" y="402" width="68" height="68" rx="14" fill="#d87232"/>
  </g>
</svg>
